# xmcd
#
# Track frame offsets:
#	150
#	16382
#	27731
#	40340
#	55385
#	69750
#	83267
#	95815
#	107297
#	122436
#	137367
#	156844
#
# Disc length: 2311 seconds
#
# Revision: 1
# Processed by: cddbd v1.5.1PL0 Copyright (c) Steve Scherf et al.
# Submitted via: CDmax 2.0
#
DISCID=8d09050c
DTITLE=Rocky Votolato - Makers
DYEAR=2005
DGENRE=Blues
TTITLE0=Goldfield
TTITLE1=Tennessee Train Tracks
TTITLE2=Portland is Leaving
TTITLE3=The Nights Disguise
TTITLE4=She Was in it for the Rain
TTITLE5=Uppers aren't Necessary
TTITLE6=Wait Out the Days
TTITLE7=Streetlights
TTITLE8=Safety is a Coffin
TTITLE9=20 Degrees
TTITLE10=One Day You Won't Be Here
TTITLE11=End Like This
EXTD=
EXTT0=
EXTT1=
EXTT2=
EXTT3=
EXTT4=
EXTT5=
EXTT6=
EXTT7=
EXTT8=
EXTT9=
EXTT10=
EXTT11=
PLAYORDER=
